<?xml version="1.0" encoding="iso-8859-1"?>
<!-- Generator: Adobe Illustrator 19.0.0, SVG Export Plug-In . SVG Version: 6.00 Build 0)  -->
<svg version="1.1" id="Layer_1" xmlns="http://www.w3.org/2000/svg" xmlns:xlink="http://www.w3.org/1999/xlink" x="0px" y="0px"
	 viewBox="0 0 512 512" style="enable-background:new 0 0 512 512;" xml:space="preserve">
<path style="fill:#F97177;" d="M256.002,165.368c0-71.342,49.121-129.176,109.715-129.176c75.742,0,137.143,72.293,137.143,161.471
	c0,110.307-129.353,218.175-243.256,277.266c-2.259,1.172-4.945,1.172-7.205,0C138.496,415.837,9.144,307.969,9.144,197.662
	c0-89.178,61.401-161.471,137.143-161.471C206.881,36.192,256.002,94.026,256.002,165.368z"/>
<path style="fill:#E54253;" d="M253.298,474.9c0.732,0.536,1.536,0.829,2.353,0.89c-1.122-0.049-2.231-0.33-3.256-0.866
	C138.488,415.837,9.144,307.965,9.144,197.666c0-84.888,55.613-154.462,126.296-160.973C97.617,61.164,70.914,120.788,70.914,190.46
	C70.914,303.625,167.898,414.288,253.298,474.9z"/>
<g>
	<path style="fill:#EAE2DC;" d="M458.228,277.483c5.926,5.926,9.791,13.132,11.608,20.728c-11.839,18.643-26.386,36.75-42.81,54.064
		c-11.132-0.061-22.265-4.341-30.763-12.827l-13.656-13.656l-61.953-61.965l-13.656-13.656c-17.119-17.107-17.119-44.846,0-61.953
		c8.56-8.56,19.765-12.827,30.97-12.827c11.218,0,22.435,4.268,30.983,12.827l13.656,13.656l61.965,61.953L458.228,277.483z"/>
	<path style="fill:#EAE2DC;" d="M320.654,263.827l61.953,61.965l-13.656,13.656c-17.107,17.107-44.846,17.107-61.953,0
		c-17.119-17.107-17.119-44.846,0-61.965L320.654,263.827z"/>
	<path style="fill:#EAE2DC;" d="M458.228,188.217c8.547,8.56,12.827,19.765,12.827,30.97c0,11.218-4.28,22.435-12.827,30.983
		l-13.656,13.656l-61.965-61.953l13.656-13.656C413.382,171.111,441.122,171.111,458.228,188.217z"/>
</g>
<path d="M469.662,77.572c-3.269-3.848-9.04-4.32-12.889-1.051c-3.849,3.269-4.32,9.041-1.051,12.891
	c24.498,28.846,37.99,67.294,37.99,108.26c0,25.907-7.696,53.023-22.851,80.801c-1.823-2.65-3.868-5.155-6.165-7.451l-7.19-7.189
	l7.189-7.189c10-10,15.507-23.299,15.507-37.45c0-14.128-5.506-27.422-15.506-37.436c-15.082-15.08-37.6-19.644-57.368-11.632
	c-4.681,1.897-6.937,7.229-5.039,11.91c1.897,4.68,7.228,6.937,11.91,5.039c12.945-5.247,27.69-2.259,37.561,7.61
	c6.548,6.556,10.153,15.261,10.153,24.508c0,9.266-3.604,17.971-10.15,24.517l-7.19,7.19l-69.148-69.14
	c-9.987-10.002-23.29-15.511-37.455-15.511c-14.143,0-27.438,5.506-37.434,15.504c-10.008,10.001-15.521,23.299-15.521,37.445
	s5.512,27.444,15.518,37.443l7.189,7.19l-7.189,7.189c-10.007,10.007-15.518,23.308-15.518,37.453
	c0,14.148,5.512,27.445,15.518,37.444c10.001,10.001,23.297,15.51,37.443,15.51c14.145,0,27.442-5.509,37.443-15.51l7.19-7.19
	l7.194,7.195c5.406,5.399,11.787,9.478,18.738,12.098c-41.016,40.193-94.542,78.316-152.539,108.475
	c-55.065-28.638-107.513-65.496-147.744-103.838c-3.653-3.484-9.442-3.347-12.93,0.311c-3.484,3.657-3.345,9.445,0.312,12.93
	c41.593,39.641,95.768,77.693,152.562,107.157c2.445,1.263,5.125,1.894,7.802,1.894c2.684,0,5.366-0.634,7.808-1.902
	c65.759-34.111,126.078-78.317,169.847-124.474c17.419-18.363,32.187-37.021,43.891-55.451C500.411,267.181,512,231.703,512,197.668
	C512,152.373,496.963,109.721,469.662,77.572z M362.483,332.986c-6.546,6.546-15.251,10.152-24.511,10.152
	s-17.963-3.605-24.512-10.154c-6.551-6.546-10.159-15.25-10.159-24.509c0-9.259,3.609-17.968,10.162-24.52l7.188-7.189l49.024,49.03
	L362.483,332.986z M423.286,342.904c-7.762-0.882-14.956-4.325-20.556-9.917l-89.267-89.28c-6.551-6.546-10.159-15.25-10.159-24.508
	c0-9.258,3.608-17.962,10.162-24.511c6.543-6.544,15.246-10.148,24.503-10.148c9.274,0,17.98,3.603,24.517,10.148l89.278,89.266
	c3.642,3.642,6.39,8.033,8.105,12.841C449.835,312.085,437.554,327.564,423.286,342.904z"/>
<path d="M18.29,197.672c0-83.995,57.422-152.328,128.002-152.328c55.453,0,100.569,53.845,100.569,120.029
	c0,5.05,4.093,9.145,9.145,9.145c5.052,0,9.145-4.094,9.145-9.145c0-66.184,45.116-120.029,100.569-120.029
	c22.512,0,44.654,7.066,64.032,20.433c4.158,2.867,9.853,1.822,12.721-2.335c2.868-4.158,1.822-9.853-2.335-12.721
	c-22.446-15.484-48.18-23.668-74.417-23.668c-49.347,0-91.765,35.176-109.713,85.111c-17.949-49.937-60.368-85.111-109.713-85.111
	C65.626,27.054,0,103.592,0,197.672c0,47.304,22.021,96.666,65.45,146.711c1.807,2.084,4.352,3.151,6.91,3.151
	c2.125,0,4.259-0.736,5.99-2.237c3.814-3.31,4.222-9.086,0.913-12.9C38.803,285.772,18.29,240.444,18.29,197.672z"/>
<path d="M373.317,215.916c-3.571-3.571-9.361-3.573-12.933,0l-25.697,25.697c-3.571,3.571-3.571,9.361,0,12.932
	c1.786,1.786,4.126,2.679,6.467,2.679c2.34,0,4.681-0.893,6.467-2.679l25.697-25.697
	C376.888,225.278,376.888,219.488,373.317,215.916z"/>
<path d="M417.599,273.133l-25.696,25.697c-3.571,3.571-3.571,9.362,0.001,12.932c1.785,1.786,4.126,2.679,6.466,2.679
	c2.34,0,4.681-0.893,6.467-2.679l25.696-25.697c3.571-3.571,3.571-9.362-0.001-12.932
	C426.962,269.56,421.171,269.561,417.599,273.133z"/>
<circle cx="383.619" cy="244.241" r="9.145"/>
<circle cx="381.595" cy="283.442" r="9.145"/>
<circle cx="402.213" cy="262.835" r="9.145"/>
<circle cx="363.013" cy="264.86" r="9.145"/>
<g>
</g>
<g>
</g>
<g>
</g>
<g>
</g>
<g>
</g>
<g>
</g>
<g>
</g>
<g>
</g>
<g>
</g>
<g>
</g>
<g>
</g>
<g>
</g>
<g>
</g>
<g>
</g>
<g>
</g>
</svg>
